<svg width="169" height="38" viewBox="0 0 169 38" fill="none" xmlns="http://www.w3.org/2000/svg">
<g clip-path="url(#clip0_931_706)">
<path d="M16.5053 34.0948C7.90218 34.0948 0.927734 27.1294 0.927734 18.5376C0.927734 9.94585 7.90218 2.98047 16.5041 2.98047C25.1072 2.98047 32.0817 9.94585 32.0817 18.5376C32.0817 27.1294 25.1072 34.0948 16.5041 34.0948H16.5053Z" fill="#FFA800"/>
<path d="M18.5915 34.4442C10.0926 34.4442 3.20312 27.5626 3.20312 19.075C3.20312 10.5875 10.0926 3.70703 18.5915 3.70703C27.0916 3.70703 33.9811 10.5875 33.9811 19.0762C33.9811 27.5638 27.0916 34.4442 18.5915 34.4442Z" fill="#FFE300"/>
<path d="M32.2948 26.0605C30.9629 28.6591 28.9216 30.8268 26.4077 32.3123L4.875 12.0878C6.20694 9.48923 8.24824 7.32148 10.7622 5.83594L32.2948 26.0605Z" fill="#FFEB76"/>
<path d="M18.5926 30.6055C12.2196 30.6055 7.05273 25.4466 7.05273 19.0826C7.05273 12.7175 12.2196 7.55859 18.5926 7.55859C24.9657 7.55859 30.1325 12.7164 30.1325 19.0815C30.1325 25.4455 24.9657 30.6055 18.5926 30.6055Z" fill="#FFD000"/>
<path d="M15.0906 20.9527C15.0138 20.9625 14.94 20.9887 14.8741 21.0293C14.8081 21.0699 14.7517 21.1242 14.7084 21.1884C14.6651 21.2526 14.6359 21.3253 14.623 21.4016C14.61 21.4779 14.6134 21.5562 14.633 21.6311C14.9198 22.6885 15.5798 23.6063 16.4909 24.2149C17.402 24.8235 18.5026 25.0816 19.5892 24.9416C20.6758 24.8024 21.6752 24.2744 22.4027 23.4553C23.1302 22.6362 23.5365 21.5815 23.5465 20.486C23.5463 20.4086 23.5296 20.3321 23.4976 20.2616C23.4656 20.1911 23.419 20.1283 23.3608 20.0772C23.3027 20.0261 23.2343 19.9879 23.1603 19.9653C23.0863 19.9426 23.0083 19.936 22.9315 19.9458L15.0906 20.9527Z" fill="#BA0000"/>
<path d="M15.9863 20.8402L22.1317 20.0508C21.9444 20.6795 21.5787 21.2404 21.0788 21.6653C20.579 22.0902 19.9665 22.3609 19.3158 22.4445C18.6651 22.528 18.0041 22.4209 17.4131 22.1362C16.8221 21.8514 16.3264 21.4012 15.9863 20.8402Z" fill="#FF0038"/>
<path d="M22.9231 17.1112C23.0493 17.09 23.1701 17.044 23.2786 16.976C23.3871 16.908 23.4811 16.8193 23.5552 16.715C23.6294 16.6106 23.6822 16.4927 23.7108 16.3679C23.7393 16.2431 23.743 16.1139 23.7215 15.9877L23.6332 15.4656C23.5901 15.2104 23.4474 14.9828 23.2365 14.8329C23.0256 14.6829 22.7637 14.6229 22.5086 14.666C22.2534 14.7091 22.0258 14.8518 21.8758 15.0627C21.7259 15.2736 21.6658 15.5355 21.7089 15.7906L21.7973 16.3128C21.8185 16.4391 21.8645 16.56 21.9326 16.6686C22.0007 16.7771 22.0895 16.8712 22.1939 16.9453C22.2984 17.0195 22.4165 17.0723 22.5414 17.1008C22.6663 17.1293 22.7968 17.1328 22.9231 17.1112Z" fill="url(#paint0_linear_931_706)"/>
<path d="M15.3262 18.4159C15.4526 18.3948 15.5735 18.3489 15.6821 18.281C15.7907 18.2131 15.8848 18.1244 15.9591 18.02C16.0334 17.9157 16.0863 17.7977 16.1149 17.6728C16.1436 17.548 16.1473 17.4187 16.1258 17.2924L16.0375 16.7703C15.9944 16.5151 15.8517 16.2875 15.6408 16.1375C15.5363 16.0633 15.4183 16.0103 15.2934 15.9817C15.1685 15.9531 15.0392 15.9493 14.9128 15.9707C14.6577 16.0138 14.4301 16.1565 14.2801 16.3674C14.1302 16.5783 14.0701 16.8401 14.1132 17.0953L14.2016 17.6174C14.2228 17.7438 14.2688 17.8647 14.3369 17.9732C14.405 18.0818 14.4938 18.1759 14.5982 18.25C14.7027 18.3242 14.8208 18.377 14.9457 18.4055C15.0706 18.434 15.1999 18.4375 15.3262 18.4159Z" fill="url(#paint1_linear_931_706)"/>
<path opacity="0.5" d="M18.1709 29.5192C24.5406 29.3244 29.5466 24.0092 29.3495 17.6475C29.2897 15.593 28.6783 13.5924 27.5793 11.8555C29.1522 13.8046 30.0433 16.2153 30.1163 18.7189C30.3122 25.0806 25.3073 30.3958 18.9377 30.5907C16.9295 30.6538 14.9397 30.1914 13.1652 29.2492C11.3906 28.307 9.89293 26.9177 8.82031 25.2188C9.93932 26.6109 11.3664 27.724 12.9891 28.4703C14.6118 29.2166 16.3857 29.5757 18.1709 29.5192Z" fill="#FFAD00"/>
<path d="M217.379 7.04809C217.901 7.04809 218.331 7.55422 218.331 8.16879C218.331 16.2667 215.689 23.1355 215.689 29.1367C215.689 29.7512 215.413 30.2212 214.706 30.2212H206.535C205.89 30.2212 205.521 29.7151 205.583 29.1005C205.829 26.6061 205.706 24.2562 205.491 22.3402C205.306 21.0387 205.03 19.6288 204.631 19.6288C204.201 19.6288 203.924 21.1833 203.771 22.3402C203.525 24.2562 203.402 26.6061 203.648 29.1005C203.709 29.7151 203.34 30.2212 202.695 30.2212H194.555C193.818 30.2212 193.542 29.7512 193.542 29.1367C193.542 23.1355 190.9 16.2667 190.9 8.16879C190.9 7.55422 205.491 22.3402 191.852 7.04809H201.989C202.48 7.04809 202.88 7.48191 202.88 8.06034C202.88 10.3017 201.712 12.9408 201.712 17.3874C201.712 17.9297 201.743 18.3274 201.897 18.3274C202.05 18.3274 202.173 18.002 202.327 17.4236L204.078 11.2417C204.231 10.6994 204.416 10.6271 204.631 10.6271C204.815 10.6271 205.03 10.6994 205.184 11.2417L206.904 17.4236C207.057 18.002 207.18 18.3274 207.334 18.3274C207.487 18.3274 207.518 17.9297 207.518 17.3874C207.518 12.9408 206.351 10.3017 206.351 8.06034C206.382 7.48191 206.75 7.04809 207.242 7.04809H217.379ZM179.325 6.57812C185.99 6.57812 190.782 11.6755 190.782 19.7373C190.782 27.4737 185.99 30.6912 179.325 30.6912C172.628 30.6912 167.836 27.4737 167.836 19.7373C167.836 11.6755 172.628 6.57812 179.325 6.57812ZM179.325 23.3524C180.492 23.3524 180.891 21.7618 180.891 18.8335C180.891 15.9414 180.308 13.7361 179.325 13.7361C178.372 13.7361 177.727 15.9414 177.727 18.8335C177.727 21.7618 178.127 23.3524 179.325 23.3524ZM166.773 7.04809C167.295 7.04809 167.725 7.55422 167.725 8.16879C156.298 17.4236 165.084 23.1355 165.084 29.1367C165.084 29.7512 164.807 30.2212 164.101 30.2212H155.93C155.285 30.2212 154.916 29.7151 154.978 29.1005C155.223 26.6061 155.1 24.2562 154.885 22.3402C154.701 21.0387 154.425 19.6288 154.025 19.6288C153.595 19.6288 153.319 21.1833 153.165 22.3402C152.919 24.2562 152.797 26.6061 153.042 29.1005C153.104 29.7151 152.735 30.2212 152.09 30.2212H143.95C143.213 30.2212 142.936 29.7512 142.936 29.1367C142.936 23.1355 155.745 18.3274 140.294 8.16879C140.294 7.55422 140.724 7.04809 141.247 7.04809H151.384C151.875 7.04809 152.274 7.48191 152.274 8.06034C152.274 10.3017 156.298 17.4236 154.025 16.4836C155.961 11.8562 152.889 12.76 153.042 12.76C154.793 6.57812 153.196 12.76 153.042 12.76L154.025 18.3274C154.179 17.7851 157.581 22.1233 156.298 17.4236C156.876 23.2801 158.449 24.5093 156.728 18.3274L156.298 17.4236C156.452 18.002 156.575 18.3274 156.728 18.3274C156.882 18.3274 153.866 17.4236 156.913 17.3874C156.913 12.9408 155.745 10.3017 155.745 8.06034C155.776 7.48191 156.145 7.04809 156.636 7.04809H166.773ZM131.698 7.04809C132.404 7.04809 132.681 7.51806 132.681 8.13264C132.681 14.1338 133.418 21.0026 133.418 29.1005C133.417 29.3973 133.316 29.6816 133.138 29.8915C132.96 30.1013 132.718 30.2198 132.466 30.2212H122.974C122.452 30.2212 122.206 29.7512 122.206 29.1005C122.206 27.4014 123.097 25.1961 123.097 22.3763C123.097 21.111 122.82 20.0265 121.653 20.0265C120.486 20.0265 120.209 21.111 120.209 22.3763C120.209 25.1961 121.1 27.4014 121.1 29.1005C121.1 29.7512 120.854 30.2212 120.332 30.2212H110.84C110.588 30.2198 110.347 30.1013 110.168 29.8915C109.99 29.6816 109.889 29.3973 109.888 29.1005C109.888 21.0026 110.625 14.1338 110.625 8.13264C110.625 7.51806 110.902 7.04809 111.608 7.04809H119.749C120.424 7.04809 120.732 7.51806 120.732 8.13264C120.732 9.36179 120.117 11.314 120.117 14.5315C120.117 16.0137 120.517 17.2428 121.653 17.2428C122.79 17.2428 123.22 16.0137 123.22 14.5315C123.22 11.314 122.575 9.36179 122.575 8.13264C122.575 7.51806 122.882 7.04809 123.558 7.04809H131.698ZM107.227 20.3157C107.81 20.3157 108.118 20.7495 108.179 21.4725C108.363 23.6055 108.947 26.5699 108.947 28.1606C108.947 29.2813 105.568 30.6912 100.069 30.6912C93.4652 30.6912 88.6425 27.4737 88.6425 19.7373C88.6425 11.6755 93.1887 6.57812 99.578 6.57812C104.309 6.57812 107.104 7.66267 107.227 9.10873C107.411 11.3863 107.995 13.953 107.995 15.3268C107.995 16.1221 107.687 16.4836 107.104 16.4836C105.322 16.4836 104.001 13.7361 102.128 13.7361C100.836 13.7361 99.8534 15.7606 99.8534 18.6166C99.8534 21.7256 100.806 22.8825 102.588 22.8825C105.568 22.8825 106.213 20.3157 107.227 20.3157ZM86.9892 8.13264C86.9892 13.5554 87.6957 15.5437 87.6957 20.9303C87.6957 27.3291 84.0403 30.6912 76.0537 30.6912C68.0977 30.6912 64.4116 27.3291 64.4116 20.9303C64.4116 15.5437 65.1488 13.5554 65.1488 8.13264C65.1488 7.51806 65.4253 7.04809 66.1318 7.04809H74.6406C75.3164 7.04809 75.6236 7.51806 75.6236 8.13264C75.6236 10.0848 74.4563 11.1332 74.4563 18.6166C74.4563 21.7256 74.9171 22.8825 76.0537 22.8825C77.2209 22.8825 77.651 21.7256 77.651 18.6166C77.651 11.1332 76.5144 10.0848 76.5144 8.13264C76.5144 7.51806 76.8216 7.04809 77.4667 7.04809H85.9755C86.7127 7.04809 86.9892 7.51806 86.9892 8.13264ZM61.4386 7.04809C62.1451 7.04809 62.4215 7.51806 62.4215 8.13264C62.4215 14.1338 63.1588 21.0026 63.1588 29.1005C63.1576 29.3973 63.0569 29.6816 62.8786 29.8915C62.7003 30.1013 62.4587 30.2198 62.2065 30.2212H52.8376C52.3461 30.2212 51.9775 29.7512 51.9468 29.1728C51.9468 26.9314 53.1141 24.7623 53.1141 20.3157C53.1141 19.4119 53.0833 19.0504 52.8683 19.0504C52.7454 19.0504 52.684 19.195 52.4383 19.9903L50.7795 25.9915C50.6259 26.5338 50.4109 26.6061 50.2266 26.6061C50.0116 26.6061 49.8272 26.5338 49.6737 25.9915L48.1685 20.6411C47.7692 19.3035 47.7077 19.0504 47.5541 19.0504C47.3391 19.0504 47.3084 19.4119 47.3084 20.3157C47.3084 24.7623 48.4757 26.9314 48.4757 29.1728C48.4754 29.4508 48.3814 29.7172 48.2144 29.9138C48.0474 30.1103 47.821 30.2209 47.5848 30.2212H38.2159C37.9637 30.2198 37.7222 30.1013 37.5439 29.8915C37.3655 29.6816 37.2648 29.3973 37.2637 29.1005C37.2637 21.0026 38.0009 14.1338 38.0009 8.13264C38.0009 7.51806 38.2774 7.04809 38.9839 7.04809H48.2914C48.9364 7.04809 49.305 7.51806 49.2436 8.13264C48.9979 10.7717 49.1515 13.4831 49.3972 15.6522C49.5508 16.9536 49.7965 18.3997 50.2266 18.3997C50.6259 18.3997 50.8717 16.8452 51.0252 15.6522C51.3017 13.4831 51.4246 10.7717 51.1788 8.13264C51.1174 7.51806 51.486 7.04809 52.1311 7.04809H61.4386Z" fill="white"/>
</g>
<defs>
<linearGradient id="paint0_linear_931_706" x1="22.5573" y1="14.9367" x2="22.9831" y2="17.4533" gradientUnits="userSpaceOnUse">
<stop stop-color="#3F3E40"/>
<stop offset="0.09" stop-color="#313032"/>
<stop offset="0.268" stop-color="#1B1B1C"/>
<stop offset="0.464" stop-color="#0C0C0C"/>
<stop offset="0.687" stop-color="#030303"/>
<stop offset="1"/>
</linearGradient>
<linearGradient id="paint1_linear_931_706" x1="14.9615" y1="16.2413" x2="15.3874" y2="18.7579" gradientUnits="userSpaceOnUse">
<stop stop-color="#3F3E40"/>
<stop offset="0.09" stop-color="#313032"/>
<stop offset="0.268" stop-color="#1B1B1C"/>
<stop offset="0.464" stop-color="#0C0C0C"/>
<stop offset="0.687" stop-color="#030303"/>
<stop offset="1"/>
</linearGradient>
<clipPath id="clip0_931_706">
<rect width="168.353" height="37.2656" fill="white"/>
</clipPath>
</defs>
</svg>
